<svg width="339" height="339" viewBox="0 0 339 339" fill="none" xmlns="http://www.w3.org/2000/svg">
<path d="M29.036 74.6017C30.7387 72.0862 34.1582 71.4273 36.6737 73.13C39.1892 74.8327 39.8481 78.2522 38.1454 80.7677C20.548 106.765 11 137.413 11 169.5C11 257.037 81.9629 328 169.5 328C257.037 328 328 257.037 328 169.5C328 81.9629 257.037 11 169.5 11C166.462 11 164 8.53757 164 5.5C164 2.46243 166.462 0 169.5 0C263.112 0 339 75.8877 339 169.5C339 263.112 263.112 339 169.5 339C75.8877 339 0 263.112 0 169.5C0 135.198 10.216 102.405 29.036 74.6017Z" fill="#F87070"/>
</svg>
